<?xml version="1.0" encoding="iso-8859-1"?>
<!-- Uploaded to: SVG Repo, www.svgrepo.com, Generator: SVG Repo Mixer Tools -->
<svg height="800px" width="800px" version="1.1" id="Layer_1" xmlns="http://www.w3.org/2000/svg" xmlns:xlink="http://www.w3.org/1999/xlink" 
	 viewBox="0 0 512 512" xml:space="preserve">
<path style="fill:#FF4F19;" d="M256,512C114.511,512,0,397.503,0,256C0,114.511,114.497,0,256,0c141.49,0,256,114.497,256,256
	C512,397.49,397.503,512,256,512z"/>
<path style="fill:#FC0023;" d="M256,0v512c141.503,0,256-114.51,256-256C512,114.497,397.49,0,256,0z"/>
<g>
	<path style="fill:#FFDB2D;" d="M256.569,121.742c-24.154,0-43.804,19.651-43.804,43.804s19.651,43.804,43.804,43.804
		c24.154,0,43.804-19.651,43.804-43.804S280.723,121.742,256.569,121.742z"/>
	<path style="fill:#FFDB2D;" d="M256,390.258c-9.425,0-17.067-7.641-17.067-17.067V244.622c0-9.425,7.641-17.067,17.067-17.067
		c9.425,0,17.067,7.641,17.067,17.067v128.569C273.067,382.616,265.425,390.258,256,390.258z"/>
</g>
<g>
	<path style="fill:#FF9900;" d="M256.569,121.742c-0.191,0-0.379,0.011-0.569,0.015v87.58c0.19,0.002,0.378,0.015,0.569,0.015
		c24.154,0,43.804-19.651,43.804-43.804S280.723,121.742,256.569,121.742z"/>
	<path style="fill:#FF9900;" d="M256,227.556v162.702c9.425,0,17.067-7.641,17.067-17.067V244.622
		C273.067,235.197,265.425,227.556,256,227.556z"/>
</g>
</svg>