<?xml version="1.0" encoding="iso-8859-1"?>
<!-- Uploaded to: SVG Repo, www.svgrepo.com, Generator: SVG Repo Mixer Tools -->
<svg version="1.1" id="Layer_1" xmlns="http://www.w3.org/2000/svg" xmlns:xlink="http://www.w3.org/1999/xlink" 
	 viewBox="0 0 512 512" xml:space="preserve">
<circle style="fill:#45B39C;" cx="256" cy="256" r="256"/>
<path style="opacity:0.1;enable-background:new    ;" d="M501.531,328.459L354.955,181.883L256,109.333l-98.955,72.549
	l23.557,23.557v33.104h-10.667h-60.603v164.123l106.101,106.101C228.651,510.875,242.192,512,256,512
	C372.208,512,470.272,434.544,501.531,328.459z"/>
<polygon style="fill:#E56353;" points="256,109.333 157.045,181.883 354.955,181.883 "/>
<g>
	<rect x="180.603" y="181.867" style="fill:#EBF0F3;" width="150.773" height="220.8"/>
	<rect x="342.08" y="238.544" style="fill:#EBF0F3;" width="60.603" height="164.123"/>
	<rect x="109.333" y="238.544" style="fill:#EBF0F3;" width="60.603" height="164.123"/>
</g>
<g>
	<rect x="331.413" y="238.544" style="fill:#E1E6E9;" width="10.667" height="164.123"/>
	<rect x="169.936" y="238.544" style="fill:#E1E6E9;" width="10.667" height="164.123"/>
</g>
<rect x="225.173" y="320.587" style="fill:#DC8744;" width="61.643" height="82.064"/>
<rect x="122.469" y="260.384" style="fill:#27A2DB;" width="34.325" height="47.349"/>
<rect x="122.469" y="302.997" style="fill:#2D93BA;" width="34.325" height="4.736"/>
<rect x="122.469" y="333.493" style="fill:#27A2DB;" width="34.325" height="47.349"/>
<rect x="122.469" y="376.107" style="fill:#2D93BA;" width="34.325" height="4.736"/>
<rect x="355.2" y="260.384" style="fill:#27A2DB;" width="34.325" height="47.349"/>
<rect x="355.2" y="302.997" style="fill:#2D93BA;" width="34.325" height="4.736"/>
<rect x="355.2" y="333.493" style="fill:#27A2DB;" width="34.325" height="47.349"/>
<rect x="355.2" y="376.107" style="fill:#2D93BA;" width="34.325" height="4.736"/>
<rect x="264.725" y="201.856" style="fill:#27A2DB;" width="45.584" height="41.648"/>
<rect x="264.725" y="239.339" style="fill:#2D93BA;" width="45.584" height="4.165"/>
<rect x="264.725" y="252.053" style="fill:#27A2DB;" width="45.584" height="41.648"/>
<rect x="264.725" y="289.547" style="fill:#2D93BA;" width="45.584" height="4.165"/>
<rect x="201.696" y="201.856" style="fill:#27A2DB;" width="45.584" height="41.648"/>
<rect x="201.696" y="239.339" style="fill:#2D93BA;" width="45.584" height="4.165"/>
<rect x="201.696" y="252.053" style="fill:#27A2DB;" width="45.584" height="41.648"/>
<rect x="201.696" y="289.547" style="fill:#2D93BA;" width="45.584" height="4.165"/>
</svg>