<?xml version="1.0" encoding="iso-8859-1"?>
<!-- Uploaded to: SVG Repo, www.svgrepo.com, Generator: SVG Repo Mixer Tools -->
<!DOCTYPE svg PUBLIC "-//W3C//DTD SVG 1.1//EN" "http://www.w3.org/Graphics/SVG/1.1/DTD/svg11.dtd">
<svg fill="currentColor" version="1.1" id="Capa_1" xmlns="http://www.w3.org/2000/svg" xmlns:xlink="http://www.w3.org/1999/xlink" 
	 width="800px" height="800px" viewBox="0 0 31.025 31.025"
	 xml:space="preserve">
<g>
	<g>
		<rect x="23.163" y="14.787" width="5.05" height="1.879"/>
		<polygon points="2.397,0 2.397,2.953 3.687,2.555 3.687,1.29 29.489,1.29 29.489,17.736 8.957,17.736 8.889,19.027 30.778,19.027 
			30.778,0 		"/>
		<path d="M2.625,21.329h2.471v-5.472l-1.335-2.532l0.374-0.094V11.81c-1.441-0.453-2.503-1.738-2.623-3.296L2.5,8.657V9.26h2.592
			V8.832h0.457v0.426h2.592V8.67l0.823-0.128c-0.047,1.305-0.72,3.051-2.724,3.311v1.327h0.007l0.477,0.227l-1.305,2.349v5.573
			h1.314h1.244l-0.468-3.146c0,0,0.194-1.278,0.427-2.625l7.248-4.883l-0.291-0.497l5.904-3.937l-0.319-0.56L14.569,9.62
			l0.137,0.237l-0.499-0.849L9.413,12.79c0.085-0.614,0.28-0.962,0.321-1.924c0.073-1.642,0.168-7.054-4.558-7.054
			c-0.497,0-1.08,0.061-1.333,0.174C3.591,4.1,3.545,4.358,3.381,4.414C3.211,4.471,2.969,4.449,2.819,4.52
			C0.479,5.647,0.56,8.396,0.56,8.396l0.346,5.644l-0.659,6.327l1.481,0.135l0.589-4.546c0.357,1.208,0.696,2.321,0.696,2.321
			L2.625,21.329z M4.803,8.97H2.788V7.944h2.015V8.97z M7.852,8.97H5.837V7.944h2.016L7.852,8.97L7.852,8.97z M1.526,7.854
			c1.042-0.071,2.219-0.892,2.31-2.034C5.155,6.912,7.023,6.965,8.58,7.104c0.193,0.091,0.336,0.483,0.376,1.002L8.141,8.232V7.656
			H5.549v0.6H5.092v-0.6H2.5v0.562l-1-0.144C1.508,8.001,1.518,7.929,1.526,7.854z"/>
		<path d="M7.937,21.657l-5.314-0.021l-0.119,3.585h1.644v4.866c-0.75,0.013-1.212,0.129-1.212,0.466c0,0.355,0.73,0.473,0.73,0.473
			h0.482h1.156h0.057c0,0,0-0.25,0-0.445c0-0.069-0.018-0.137-0.057-0.198v-5.161h0.614l0.212,2.016l-0.329,3.062
			c-0.092,0.081-0.132,0.179-0.132,0.282c0,0.193,0,0.445,0,0.445h0.055l0,0H6.89l0,0h0.475c0,0,0.73-0.116,0.73-0.473
			c0-0.322-0.433-0.443-1.129-0.462l0.233-2.854l-0.162-2.014H8.14L7.937,21.657z"/>
	</g>
</g>
</svg>