<?xml version="1.0" encoding="utf-8"?>
<!-- Uploaded to: SVG Repo, www.svgrepo.com, Generator: SVG Repo Mixer Tools -->
<svg width="800px" height="800px" viewBox="0 0 1024 1024" class="icon"  version="1.1" xmlns="http://www.w3.org/2000/svg"><path d="M730.240133 261.207481h109.371431v469.56712h-109.371431zM511.498296 118.295615h109.371431v612.477962h-109.371431zM292.755435 337.038476h109.371431v393.736125h-109.371431zM117.762171 796.397459h787.472251v109.371431H117.762171z" fill="#74E8AE" /><path d="M861.48585 708.900315h-4.031037c2.451181-6.87539 4.031037-14.166477 4.031037-21.874286v-382.073048c0-36.186155-29.436703-65.622858-65.622859-65.622858H664.617275c-7.707809 0-14.998896 1.579855-21.874286 4.031037v-81.316973c0-36.186155-29.436703-65.622858-65.622858-65.622858H445.875438c-36.186155 0-65.622858 29.436703-65.622858 65.622858v162.982066c-6.87539-2.451181-14.166477-4.031037-21.874286-4.031036H227.133601c-36.186155 0-65.622858 29.436703-65.622858 65.622858v300.407954c0 7.707809 1.580879 14.998896 4.03206 21.874286h-4.03206c-36.186155 0-65.622858 29.436703-65.622858 65.622858v87.497145c0 36.186155 29.436703 65.622858 65.622858 65.622858h699.975107c36.186155 0 65.622858-29.436703 65.622858-65.622858v-87.497145c0-36.187179-29.436703-65.622858-65.622858-65.622858zM642.744013 304.952981c0-12.058297 9.804726-21.874286 21.874286-21.874286h131.245716c12.06956 0 21.874286 9.815989 21.874286 21.874286v382.073048c0 12.058297-9.804726 21.874286-21.874286 21.874286H664.617275c-12.06956 0-21.874286-9.815989-21.874286-21.874286v-382.073048z m-218.742861 81.665094V162.044187c0-12.058297 9.815989-21.874286 21.874286-21.874286h131.245716c12.06956 0 21.874286 9.815989 21.874287 21.874286v524.981842c0 12.058297-9.804726 21.874286-21.874287 21.874286H445.875438c-12.058297 0-21.874286-9.815989-21.874286-21.874286v-300.407954z m-218.741837 0c0-12.058297 9.815989-21.874286 21.874286-21.874286h131.245717c12.058297 0 21.874286 9.815989 21.874286 21.874286v300.407954c0 12.058297-9.815989 21.874286-21.874286 21.874286H227.133601c-12.058297 0-21.874286-9.815989-21.874286-21.874286v-300.407954zM883.360136 862.019294c0 12.058297-9.804726 21.874286-21.874286 21.874286H161.510743c-12.058297 0-21.874286-9.815989-21.874286-21.874286v-87.497144c0-12.058297 9.815989-21.874286 21.874286-21.874287h699.977154c12.06956 0 21.874286 9.815989 21.874286 21.874287v87.497144z" fill="#22C67F" /></svg>